<svg width="522" height="179" viewBox="0 0 522 179" fill="none" xmlns="http://www.w3.org/2000/svg">
<path d="M62.8102 9.83417C55.0918 13.0764 44.9494 18.8286 43.8506 20.2642C41.976 26.6571 0.0440843 53.3461 1.01669 67.0042C1.46953 73.3633 2.34858 78.6096 5.6184 86.2286C8.88822 93.8476 14.3823 103.545 18.3747 111.097C22.3671 118.648 24.7844 123.895 31.0877 131.596C37.3909 139.296 46.7949 149.457 53.9231 155.064C63.8624 162.883 70.7683 166.767 77.9705 169.223C83.8342 171.222 96.2174 175.355 120.675 176.681C135.246 177.471 154.145 177.153 166.312 176.666C178.479 176.18 183.753 175.544 191.259 174.161C198.764 172.778 208.214 170.712 220.637 168.941C233.06 167.171 248.004 165.74 265.892 164.943C283.779 164.145 304.034 163.547 318.635 164.398C342.063 165.764 357.057 168.54 367.556 170.502C373.962 171.699 377.889 172.715 381.287 173.306C386.841 174.272 402.097 179.549 428.626 177.553C444.566 176.353 457.102 175.37 464.861 173.942C472.802 172.48 485.021 170.196 490.51 167.267C498.508 162.999 503.803 159.462 508.264 155.698C514.251 150.647 520.229 147.062 520.787 135.727C521.337 124.579 521.134 112.271 516.302 100.698C510.648 87.156 503.837 76.2057 499.001 69.4466C494.019 62.4853 492.85 58.651 478.553 48.0037C467.595 39.8427 464.402 35.276 445.705 29.1598C437.627 26.5174 425.653 20.2932 404.293 21.471C396.997 21.8733 389.976 23.6486 383.009 25.089C376.799 26.3729 371.6 27.7393 358.142 29.5163C350.134 30.5738 336.509 32.1636 319.168 32.8766C301.826 33.5896 281.371 33.6958 270.603 33.1873C258.719 32.626 245.476 31.2853 234.286 29.0105L234.242 29.0017C230.653 28.272 219.57 26.0191 205.383 21.4469C193.223 17.5278 187.827 14.8282 180.314 11.8913C172.106 8.68277 158.242 3.657 137.79 1.94783C126.375 0.993949 112.679 0.540282 101.861 1.64914C83.0617 3.57617 70.3969 6.64726 62.8102 9.83417Z" stroke="white" stroke-width="2" stroke-linecap="round"/>
</svg>
