<svg xmlns="http://www.w3.org/2000/svg" viewBox="0 0 248.87 299.93"><defs><style>.cls-1{fill:#456a5c;}</style></defs><g id="Layer_2" data-name="Layer 2"><g id="Layer_1-2" data-name="Layer 1"><path class="cls-1" d="M0,96.87c3.08-.43,6.27-.52,9.38-.84a69.08,69.08,0,0,1,15.74.52C38.22,98.2,50.45,103,62,109.32a229.63,229.63,0,0,1,21.76,13.75c6.85,4.81,14,9.24,20.78,14.08a111.2,111.2,0,0,0,21,11.69,57.83,57.83,0,0,0,14.07,4.43,48.58,48.58,0,0,0,15.64.29c15-2.61,29.2-13.24,35.86-26.88a42.23,42.23,0,0,0,2.46-6.23c2.31-7.57,2.76-15.67,2.62-23.53-.32-16.9-.41-33.8,6-49.72,5.61-13.85,16.94-24.19,28-33.75A163.27,163.27,0,0,1,248.87,0c0,4.76,0,9.52,0,14.27V197.68l-16.1-2.86c-8-1.42-16.46-1.33-24.58-.95a143.78,143.78,0,0,0-23.75,2.82,76.43,76.43,0,0,0-21.27,7.78c-7,3.9-13.13,9.09-18.89,14.59-6,5.74-11.92,11.57-17.84,17.4q-8.57,8.41-17,17c-5.1,5.16-10.27,10.23-15.74,15A161.88,161.88,0,0,1,75.39,282.6,122.55,122.55,0,0,1,64.33,289a106.46,106.46,0,0,1-11.63,5c-1.62.6-3.26,1.16-4.93,1.62a111.71,111.71,0,0,1-25.84,4.31,73.06,73.06,0,0,1-8.37-.24c-2.32-.21-4.64-.53-6.93-1-1.17-.22-2.33-.47-3.49-.75A20.83,20.83,0,0,0,0,297.18"/></g></g></svg>